<?xml version="1.0" encoding="UTF-8"?> <svg xmlns="http://www.w3.org/2000/svg" width="88" height="88" fill="none" viewBox="0 0 88 88"><path fill="#fff" d="M73.83 76.272C82.594 68.204 88 56.705 88 44c0-10.108-3.17-19.196-9.322-27.171-3.076-3.895-6.712-7.141-10.814-9.83-1.584-1.02-2.983-.742-3.915.556-.932 1.298-.56 2.875.932 3.988.56.37 1.119.649 1.585 1.113 12.398 9.458 17.992 21.885 15.661 37.28-3.076 20.308-21.813 34.311-42.322 32.178-15.847-1.669-29.178-12.983-33.093-28.377-.746-3.06-.932-6.306-1.305-9.366-.187-1.762-1.305-2.968-2.797-2.875-1.585 0-2.61 1.206-2.61 3.06 0 1.855.093 3.71.373 5.565 3.263 24.018 26.102 41.081 50.152 37.372 9.043-1.484 17.06-5.471 23.306-11.221z"></path><path fill="#E5E5E5" d="M87.627 37.88C84.364 13.86 61.525-3.203 37.475.506 15.847 3.846 0 22.114 0 43.907 0 54.015 3.17 63.104 9.322 71.08c3.076 3.895 6.712 7.14 10.814 9.83 1.584 1.02 2.983.741 3.915-.557.932-1.298.56-2.874-.932-3.987-.56-.371-1.119-.65-1.585-1.113C9.136 65.792 3.636 53.274 5.873 37.879 8.949 17.57 27.686 3.567 48.195 5.7c15.847 1.67 29.178 12.983 33.093 28.377.746 3.06.932 6.306 1.305 9.367.187 1.761 1.305 2.967 2.797 2.874 1.585 0 2.61-1.205 2.61-3.06 0-1.67-.093-3.524-.373-5.379z"></path><path fill="#B3B3B3" d="M63.115 47.015h-3.193a2.7 2.7 0 0 0-.85-1.547l-9.264-8.47a.959.959 0 0 0-.647-.246h-5.383c-.521 0-.845.436-1.203.722a8.666 8.666 0 0 1-1.3.866c-.645.345-1.357.603-2.103.683-.39.041-.792.036-1.176-.046-.922-.199-1.576-.924-.771-1.659l4.323-3.953c.284-.26.598-.42 1.29-.42h8.627c.505 0 1.037.485 1.39.762.564.442 1.09.922 1.639 1.379 1.002.836 2.211 1.784 3.647 1.784h4.975c1.179 0 1.179-1.673 0-1.673H58.14c-.537 0-1.047-.33-1.458-.61-.614-.422-1.168-.914-1.726-1.394-.94-.808-2.098-1.92-3.492-1.92H36.537c-1.395 0-2.553 1.112-3.493 1.92-.518.445-1.032.9-1.594 1.3-.44.316-1 .704-1.59.704h-4.975c-1.18 0-1.18 1.673 0 1.673h4.975c1.436 0 2.646-.949 3.647-1.784.549-.457 1.076-.937 1.639-1.379.353-.278.884-.761 1.39-.761h2.884l-3.489 3.19c-.81.74-1.2 1.828-.721 2.822.443.92 1.46 1.477 2.505 1.676 2.378.451 4.757-.767 6.434-2.208h4.633l8.996 8.225c1.126 1.03-.617 2.628-1.744 1.6l-5.797-5.3c-.834-.765-2.128.42-1.294 1.182l6.596 6.03c1.127 1.032-.618 2.632-1.745 1.6l-6.599-6.032c-.833-.764-2.127.42-1.293 1.182l5.67 5.185c.761.696.21 1.931-.872 1.93-.33 0-.64-.117-.873-.331h-.001l-5.67-5.186c-.835-.763-2.128.42-1.294 1.183l4.75 4.343c1.121 1.033-.625 2.624-1.75 1.594l-.621-.566c.995-1.739-.28-3.907-2.427-4.078.143-1.412-.914-2.72-2.443-2.988.425-1.68-.936-3.348-2.828-3.426.136-2.51-3.274-3.873-5.208-2.105l-3.28 3a2.703 2.703 0 0 0-.852 1.548h-3.318c-1.18 0-1.18 1.672 0 1.672h3.601c.469.868 1.383 1.46 2.443 1.551-.183 1.787 1.52 3.276 3.46 3.027.248 1.738 2.241 2.854 4.046 2.275.339 1.224 1.576 2.095 2.956 2.095.818 0 1.588-.293 2.167-.822l.505-.462.505.462c1.64 1.502 4.546.789 5.12-1.273 1.668.532 3.534-.368 3.977-1.938 2.322.751 4.614-1.289 3.925-3.43.903-.189 1.639-.726 2.049-1.485h3.476c1.18 0 1.18-1.673 0-1.673zm-32.767 1.233a1.064 1.064 0 0 1 0-1.598l3.28-3c1.129-1.03 2.875.567 1.748 1.598l-3.284 3.002c-.466.425-1.279.424-1.744-.002zm2.744 3.053a1.064 1.064 0 0 1 0-1.599l3.43-3.135c1.128-1.03 2.875.566 1.747 1.597l-3.43 3.137a1.32 1.32 0 0 1-1.747 0zm5.206 2.395a1.288 1.288 0 0 1-.873.332c-1.078 0-1.636-1.232-.874-1.928l2.357-2.156c1.127-1.03 2.873.567 1.746 1.598 0 .002-2.354 2.153-2.356 2.154zm3.966 1.936c-1.123 1.028-2.863-.558-1.753-1.592l1.162-1.062c.23-.211.546-.33.872-.33 1.083 0 1.633 1.233.872 1.929l-1.153 1.055z"></path><path fill="#F76E1E" d="M58.458 28.856h-2.594v2.417h2.594v-2.417zM58.458 24h-2.594v2.418h2.594V24zM55.862 26.418H53.27v2.416h2.593v-2.416zM61.074 26.418h-2.593v2.416h2.593v-2.416zM35.043 61.583H32.45V64h2.594v-2.417zM35.043 56.727h-2.594v2.417h2.594v-2.417zM32.447 59.144h-2.594v2.418h2.594v-2.418zM37.658 59.144h-2.594v2.418h2.594v-2.418z"></path></svg> 