<?xml version="1.0" encoding="UTF-8"?> <svg xmlns="http://www.w3.org/2000/svg" width="88" height="88" fill="none" viewBox="0 0 88 88"><path fill="#fff" d="M73.83 76.272C82.594 68.204 88 56.705 88 44c0-10.108-3.17-19.196-9.322-27.171-3.076-3.895-6.712-7.141-10.814-9.83-1.584-1.02-2.983-.742-3.915.556-.932 1.298-.56 2.875.932 3.988.56.37 1.119.649 1.585 1.113 12.398 9.458 17.992 21.885 15.661 37.28-3.076 20.308-21.813 34.311-42.322 32.178-15.847-1.669-29.178-12.983-33.093-28.377-.746-3.06-.932-6.306-1.305-9.366-.187-1.762-1.305-2.968-2.797-2.875-1.585 0-2.61 1.206-2.61 3.06 0 1.855.093 3.71.373 5.565 3.263 24.018 26.102 41.081 50.152 37.372 9.043-1.484 17.06-5.471 23.306-11.221z"></path><path fill="#E5E5E5" d="M87.627 37.88C84.364 13.86 61.525-3.203 37.475.506 15.847 3.846 0 22.114 0 43.907 0 54.015 3.17 63.104 9.322 71.08c3.076 3.895 6.712 7.14 10.814 9.83 1.584 1.02 2.983.741 3.915-.557.932-1.298.56-2.874-.932-3.987-.56-.371-1.119-.65-1.585-1.113C9.136 65.792 3.636 53.274 5.873 37.879 8.949 17.57 27.686 3.567 48.195 5.7c15.847 1.67 29.178 12.983 33.093 28.377.746 3.06.932 6.306 1.305 9.367.187 1.761 1.305 2.967 2.797 2.874 1.585 0 2.61-1.205 2.61-3.06 0-1.67-.093-3.524-.373-5.379z"></path><path stroke="#F76E1E" stroke-linecap="round" stroke-linejoin="round" stroke-miterlimit="10" stroke-width="2" d="M38.306 42.64l4.749 3.952c.2.177.466.244.732.222.266-.023.51-.156.688-.356l6.724-8.259"></path><path stroke="#B3B3B3" stroke-linecap="round" stroke-linejoin="round" stroke-miterlimit="10" stroke-width="2" d="M44.075 24.39c-9.741 0-17.64 7.904-17.64 17.65 0 9.747 7.899 17.65 17.64 17.65 9.742 0 17.642-7.903 17.642-17.65 0-9.746-7.9-17.65-17.642-17.65z"></path><path stroke="#B3B3B3" stroke-linecap="round" stroke-linejoin="round" stroke-miterlimit="10" stroke-width="2" d="M67.886 48.745l-1.131-4.551c-.155-.622-.244-1.532-.244-2.443 0-.843.089-1.687.222-2.264l1.065-4.574c.066-.31.11-.621.11-.932 0-.822-.221-1.62-.598-2.331-.378-.71-.932-1.354-1.642-1.776l-4.017-2.42c-.533-.311-1.22-.866-1.842-1.488-.621-.622-1.198-1.288-1.509-1.82l-2.463-3.997a4.548 4.548 0 0 0-1.775-1.598c-.71-.378-1.487-.6-2.308-.6-.333 0-.665.045-.998.111l-4.55 1.133c-.62.155-1.53.244-2.44.244-.843 0-1.687-.089-2.264-.222l-4.549-1.066a4.452 4.452 0 0 0-.932-.11c-.82 0-1.62.221-2.33.599-.71.377-1.353.932-1.775 1.642l-2.44 4.019c-.311.533-.866 1.221-1.488 1.843-.62.621-1.287 1.199-1.82 1.51l-3.993 2.464a4.386 4.386 0 0 0-1.598 1.776c-.355.71-.577 1.51-.577 2.309 0 .333.044.666.11.999l1.133 4.551c.155.622.244 1.532.244 2.443 0 .843-.089 1.687-.222 2.264L20.2 49.034c-.067.31-.111.621-.111.932 0 .822.222 1.62.599 2.331.377.71.932 1.355 1.642 1.776l4.016 2.42c.533.311 1.22.866 1.842 1.488.622.622 1.199 1.288 1.51 1.82l2.462 3.975c.444.71 1.065 1.22 1.776 1.598.71.377 1.508.577 2.307.577.333 0 .666-.044.999-.11l4.549-1.133c.621-.155 1.53-.244 2.44-.244.844 0 1.687.089 2.264.222l4.571 1.065c.311.067.622.111.932.111.821 0 1.62-.221 2.33-.599.71-.377 1.354-.932 1.775-1.643l2.42-4.018c.31-.533.865-1.221 1.486-1.843.621-.622 1.287-1.199 1.82-1.51l3.994-2.464c.71-.444 1.22-1.066 1.598-1.776.377-.71.576-1.51.576-2.31.023-.31-.11-.954-.11-.954z"></path></svg> 