<?xml version="1.0" encoding="UTF-8"?> <svg xmlns="http://www.w3.org/2000/svg" width="88" height="88" fill="none" viewBox="0 0 88 88"><path fill="#fff" d="M73.83 76.272C82.594 68.204 88 56.705 88 44c0-10.108-3.17-19.196-9.322-27.171-3.076-3.895-6.712-7.141-10.814-9.83-1.584-1.02-2.983-.742-3.915.556-.932 1.298-.56 2.875.932 3.988.56.37 1.119.649 1.585 1.113 12.398 9.458 17.992 21.885 15.661 37.28-3.076 20.308-21.813 34.311-42.322 32.178-15.847-1.669-29.178-12.983-33.093-28.377-.746-3.06-.932-6.306-1.305-9.366-.187-1.762-1.305-2.968-2.797-2.875-1.585 0-2.61 1.206-2.61 3.06 0 1.855.093 3.71.373 5.565 3.263 24.018 26.102 41.081 50.152 37.372 9.043-1.484 17.06-5.471 23.306-11.221z"></path><path fill="#E5E5E5" d="M87.627 37.88C84.364 13.86 61.525-3.203 37.475.506 15.847 3.846 0 22.114 0 43.907 0 54.015 3.17 63.104 9.322 71.08c3.076 3.895 6.712 7.14 10.814 9.83 1.584 1.02 2.983.741 3.915-.557.932-1.298.56-2.874-.932-3.987-.56-.371-1.119-.65-1.585-1.113C9.136 65.792 3.636 53.274 5.873 37.879 8.949 17.57 27.686 3.567 48.195 5.7c15.847 1.67 29.178 12.983 33.093 28.377.746 3.06.932 6.306 1.305 9.367.187 1.761 1.305 2.967 2.797 2.874 1.585 0 2.61-1.205 2.61-3.06 0-1.67-.093-3.524-.373-5.379z"></path><path stroke="#B3B3B3" stroke-linecap="round" stroke-linejoin="round" stroke-miterlimit="10" stroke-width="2" d="M61.036 59.175H26.59a2.882 2.882 0 0 1-2.883-2.883V31.708a2.882 2.882 0 0 1 2.883-2.883h34.447a2.882 2.882 0 0 1 2.883 2.883v24.584a2.882 2.882 0 0 1-2.883 2.883zM48.517 62.438c0 3.793 5.311 5.31 9.864 5.31H30.307c4.553 0 9.864-1.517 9.864-5.31"></path><path stroke="#F76E1E" stroke-linecap="round" stroke-linejoin="round" stroke-miterlimit="10" stroke-width="1.5" d="M37.895 45.745l-3.946-4.021 3.946-3.946M49.73 45.745l4.022-4.021-4.021-3.946M45.861 37.854l-4.097 8.194"></path><path stroke="#B3B3B3" stroke-linecap="round" stroke-linejoin="round" stroke-miterlimit="10" stroke-width="2" d="M23.479 53.333h40.213"></path></svg> 